<svg xmlns="http://www.w3.org/2000/svg" xmlns:xlink="http://www.w3.org/1999/xlink" viewBox="0,0,256,256" width="800px" height="800px" fill-rule="nonzero"><g fill="#f8ffc9" fill-rule="nonzero" stroke="none" stroke-width="1" stroke-linecap="butt" stroke-linejoin="miter" stroke-miterlimit="10" stroke-dasharray="" stroke-dashoffset="0" font-family="none" font-weight="none" font-size="none" text-anchor="none" style="mix-blend-mode: normal"><g transform="scale(5.12,5.12)"><path d="M37,0l-0.59961,3.19922c-0.3,0.1 -0.7,0.20039 -1,0.40039l-2.70117,-1.90039l-3,3l1.80078,2.5c-0.1,0.4 -0.30039,0.70156 -0.40039,1.10156l-3.09961,0.5v4.19922l3.09961,0.5c0.1,0.3 0.20039,0.7 0.40039,1l-1.80078,2.69922l3,3l2.70117,-1.79883c0.4,0.2 0.69961,0.30039 1.09961,0.40039l0.5,3.19922h4.09961l0.59961,-3.09961c0.3,-0.1 0.6,-0.20039 1,-0.40039l2.70117,1.80078l3,-3l-1.90039,-2.60156c0.2,-0.4 0.30039,-0.79961 0.40039,-1.09961l3.09961,-0.59961v-4.19922l-3.19922,-0.5c-0.1,-0.3 -0.20039,-0.7 -0.40039,-1l1.79883,-2.70117l-2.89844,-2.90039l-2.60156,1.90039c-0.3,-0.2 -0.7,-0.30039 -1,-0.40039l-0.5,-3.19922zM38.69922,2h0.80078l0.40039,2.69922l0.59961,0.20117c0.6,0.2 1.19922,0.39922 1.69922,0.69922l0.60156,0.40039l2.29883,-1.69922l0.5,0.5l-1.59961,2.29883l0.30078,0.5c0.3,0.6 0.49922,1.20078 0.69922,1.80078l0.19922,0.59961l2.80078,0.40039v0.79883l-2.69922,0.60156l-0.20117,0.59961c-0.2,0.6 -0.39922,1.19922 -0.69922,1.69922l-0.40039,0.59961l1.69922,2.30078l-0.59961,0.59961l-2.29883,-1.59961l-0.5,0.30078c-0.6,0.3 -1.20078,0.49922 -1.80078,0.69922l-0.59961,0.19922l-0.5,2.80078h-0.80078l-0.40039,-2.69922l-0.59961,-0.20117c-0.6,-0.2 -1.19922,-0.39922 -1.69922,-0.69922l-0.59961,-0.40039l-2.40039,1.59961l-0.59961,-0.59961l1.59961,-2.30078l-0.30078,-0.5c-0.3,-0.6 -0.49922,-1.29883 -0.69922,-1.79883l-0.20117,-0.59961l-2.69922,-0.5v-0.80078l2.80078,-0.5l0.09961,-0.69922c0.1,-0.5 0.29961,-1.10156 0.59961,-1.60156l0.40039,-0.5l-1.59961,-2.29883l0.59961,-0.59961l2.29883,1.59961l0.5,-0.20117c0.7,-0.3 1.30039,-0.59883 1.90039,-0.79883l0.59961,-0.09961zM4,5c-1.103,0 -2,0.897 -2,2v29c0,1.103 0.897,2 2,2h15v3h-3c-1.654,0 -3,1.346 -3,3v2h24v-2c0,-1.654 -1.346,-3 -3,-3h-3v-3h15c1.103,0 2,-0.897 2,-2v-15.63281c-0.612,0.589 -1.282,1.11517 -2,1.57617v8.05664h-42v-23h22.63477c0.225,-0.695 0.50684,-1.362 0.83984,-2zM39,6.90039c-2.2,0 -4,1.8 -4,4c0,2.2 1.8,4 4,4c2.2,0 4,-1.7 4,-4c0,-2.2 -1.8,-4 -4,-4zM39,9c1.1,0 2,0.8 2,2c0,1.1 -0.9,2 -2,2c-1.1,0 -2,-0.9 -2,-2c0,-1.1 0.9,-2 2,-2zM4,32h42v4h-15h-12h-15zM41,33v2h2v-2zM21,38h8v3h-8zM16,43h3h12h3c0.551,0 1,0.449 1,1h-20c0,-0.551 0.449,-1 1,-1z"></path></g></g></svg>